<?xml version="1.0" encoding="UTF-8" standalone="no"?>
<!-- Created with Inkscape (http://www.inkscape.org/) -->

<svg
   xmlns:dc="http://purl.org/dc/elements/1.1/"
   xmlns:cc="http://creativecommons.org/ns#"
   xmlns:rdf="http://www.w3.org/1999/02/22-rdf-syntax-ns#"
   xmlns:svg="http://www.w3.org/2000/svg"
   xmlns="http://www.w3.org/2000/svg"
   xmlns:sodipodi="http://sodipodi.sourceforge.net/DTD/sodipodi-0.dtd"
   xmlns:inkscape="http://www.inkscape.org/namespaces/inkscape"
   width="400"
   height="400"
   viewBox="0 0 105.83334 105.83334"
   version="1.1"
   id="svg1110"
   inkscape:version="0.92.4 (unknown)"
   sodipodi:docname="logo.svg"
   inkscape:export-filename="/home/marxjmoura/storefront-community/mock/burger-place/gallery/logo.png"
   inkscape:export-xdpi="96"
   inkscape:export-ydpi="96">
  <defs
     id="defs1104" />
  <sodipodi:namedview
     id="base"
     pagecolor="#ffffff"
     bordercolor="#666666"
     borderopacity="1.0"
     inkscape:pageopacity="0.0"
     inkscape:pageshadow="2"
     inkscape:zoom="0.7"
     inkscape:cx="286.89321"
     inkscape:cy="203.06787"
     inkscape:document-units="mm"
     inkscape:current-layer="layer1"
     showgrid="false"
     inkscape:window-width="1366"
     inkscape:window-height="713"
     inkscape:window-x="0"
     inkscape:window-y="27"
     inkscape:window-maximized="1"
     showguides="false"
     units="px"
     fit-margin-top="0"
     fit-margin-left="0"
     fit-margin-right="0"
     fit-margin-bottom="0" />
  <metadata
     id="metadata1107">
    <rdf:RDF>
      <cc:Work
         rdf:about="">
        <dc:format>image/svg+xml</dc:format>
        <dc:type
           rdf:resource="http://purl.org/dc/dcmitype/StillImage" />
        <dc:title />
      </cc:Work>
    </rdf:RDF>
  </metadata>
  <g
     inkscape:label="Layer 1"
     inkscape:groupmode="layer"
     id="layer1"
     transform="translate(-32.683205,-95.651413)">
    <rect
       style="opacity:1;fill:#ffffff;fill-opacity:1;stroke-width:0.25285739"
       id="rect11285"
       width="105.83334"
       height="105.83334"
       x="32.683201"
       y="95.651405" />
    <g
       id="g7289"
       transform="matrix(0.81335415,0,0,0.81335415,-109.18565,-16.181682)"
       style="fill:#e30e53;fill-opacity:1">
      <path
         sodipodi:nodetypes="cssccc"
         inkscape:connector-curvature="0"
         id="path7108"
         style="fill:#e30e53;fill-opacity:1;fill-rule:nonzero;stroke:none;stroke-width:0.03527778"
         d="m 304.54408,247.24489 h -17.25824 c -12.4655,0 -19.6082,-23.98889 -7.79145,-23.98889 h 25.04969 l -7.37447,11.59827 7.37447,12.39062" />
      <path
         sodipodi:nodetypes="cssccc"
         inkscape:connector-curvature="0"
         id="path7112"
         style="fill:#e30e53;fill-opacity:1;fill-rule:nonzero;stroke:none;stroke-width:0.03527778"
         d="m 174.42446,247.24489 h 17.25859 c 20.23463,0 29.06476,-23.98889 7.7911,-23.98889 h -25.04969 l 7.37447,11.59827 -7.37447,12.39062" />
    </g>
    <g
       id="g7293"
       transform="matrix(0.81335415,0,0,0.81335415,-109.18565,-16.181682)"
       style="fill:#c40845;fill-opacity:1">
      <path
         sodipodi:nodetypes="cccc"
         inkscape:connector-curvature="0"
         id="path7110"
         style="fill:#c40845;fill-opacity:1;fill-rule:nonzero;stroke:none;stroke-width:0.03527778"
         d="m 287.28584,228.90044 -7.76111,-5.44089 v 5.44089 z" />
      <path
         sodipodi:nodetypes="cccc"
         inkscape:connector-curvature="0"
         id="path7114"
         style="fill:#c40845;fill-opacity:1;fill-rule:nonzero;stroke:none;stroke-width:0.03750503"
         d="m 191.68305,228.90044 7.76112,-5.44089 v 6.1496 z" />
    </g>
    <path
       d="m 121.71258,135.85813 c -1.30727,-4.02854 -0.10014,-9.38128 -2.54195,-12.73295 -2.46073,-3.38897 -7.94145,-3.88106 -11.32956,-6.34639 -3.35625,-2.44066 -5.50165,-7.51507 -9.52905,-8.82263 -3.888516,-1.2625 -8.591069,1.53883 -12.90109,1.53883 -4.30601,0 -9.010573,-2.80133 -12.896218,-1.53883 -4.02969,1.30756 -6.176245,6.38197 -9.530778,8.82263 -3.387539,2.46533 -8.869106,2.95742 -11.332431,6.34639 -2.441518,3.35167 -1.232955,8.70182 -2.539356,12.73295 -1.265376,3.8868 -5.427635,7.48609 -5.427635,11.79381 0,4.30917 4.162259,7.90703 5.427635,11.79641 1.306401,4.02855 0.09784,9.37842 2.539356,12.73381 2.463325,3.38725 7.944892,3.8782 11.332431,6.34324 3.354533,2.44237 5.501088,7.51566 9.52676,8.8229 3.889663,1.26306 8.594226,-1.53678 12.900236,-1.53678 4.310021,0 9.012574,2.79984 12.897935,1.53678 4.030555,-1.30724 6.175955,-6.38053 9.532205,-8.82118 3.38811,-2.46676 8.86883,-2.95771 11.32956,-6.34496 2.44181,-3.35539 1.23468,-8.70269 2.54195,-12.73381 1.26279,-3.88938 5.42648,-7.48724 5.42648,-11.79641 0,-4.30772 -4.16369,-7.90701 -5.42648,-11.79381"
       style="fill:#333333;fill-opacity:1;fill-rule:nonzero;stroke:none;stroke-width:0.02869333"
       id="path7116"
       inkscape:connector-curvature="0" />
    <path
       d="m 85.41093,114.55878 c -18.247242,0 -33.09403,14.84536 -33.09403,33.09316 0,18.24954 14.846788,33.09518 33.09403,33.09518 18.24924,0 33.09459,-14.84564 33.09459,-33.09518 0,-18.2478 -14.84535,-33.09316 -33.09459,-33.09316 z m 0,67.35128 c -18.888246,0 -34.258981,-15.36585 -34.258981,-34.25812 0,-18.89053 15.370735,-34.25781 34.258981,-34.25781 18.89226,0 34.26069,15.36728 34.26069,34.25781 0,18.89227 -15.36843,34.25812 -34.26069,34.25812"
       style="fill:#feffbd;fill-opacity:1;fill-rule:nonzero;stroke:none;stroke-width:0.02869333"
       id="path7118"
       inkscape:connector-curvature="0" />
    <path
       d="m 81.157428,117.04392 c -16.876846,2.34654 -28.701942,17.98469 -26.355114,34.86325 2.345965,16.8777 17.984984,28.70079 34.862686,26.3554 16.87541,-2.34827 28.69878,-17.98699 26.35368,-34.86556 -2.34368,-16.87569 -17.984697,-28.6982 -34.861252,-26.35309"
       style="fill:#feffbd;fill-opacity:1;fill-rule:nonzero;stroke:none;stroke-width:0.02869333"
       id="path7120"
       inkscape:connector-curvature="0" />
    <g
       id="g7385"
       transform="matrix(0.81335415,0,0,0.81335415,4.2891986,33.382046)">
      <path
         d="m 127.44339,159.557 c 0,0 2.50437,0.48366 1.99778,4.60199 -0.50659,4.11903 -9.85838,10.26019 -33.312811,9.20856 -21.010035,-0.94227 -31.026808,-6.01804 -25.033113,-15.45026 5.993695,-9.43222 56.348144,1.63971 56.348144,1.63971"
         style="fill:#e6851e;fill-opacity:1;fill-rule:evenodd;stroke:none;stroke-width:0.03527778"
         id="path2272"
         inkscape:connector-curvature="0" />
      <path
         d="m 72.599843,159.24268 c 0,0 -5.398206,0.52916 -5.201003,2.38336 0.197556,1.8542 3.246967,0.93557 4.238626,2.59892 0.992011,1.66264 2.570339,1.52894 5.177014,2.04293 2.605969,0.5133 1.647825,1.66088 3.730625,2.12796 2.0828,0.46672 1.71697,-0.33373 4.683831,-0.75459 2.967214,-0.42051 4.982281,1.11619 6.833659,-0.6664 1.850672,-1.78188 5.701594,-2.24084 7.109178,-1.69898 1.407587,0.54222 2.639487,-0.91722 4.208987,-0.76694 1.56951,0.15099 3.15842,1.64959 6.45725,2.02777 3.29882,0.37783 2.29941,-1.03611 4.12574,-0.74189 1.82668,0.29457 2.42605,1.91417 4.91172,2.12055 2.48532,0.20602 2.29764,-1.91382 3.73909,-1.85597 1.4411,0.0579 4.81225,1.64324 6.43079,0.17921 1.61854,-1.46438 -0.60925,-2.24225 0.55739,-3.35985 1.16699,-1.11866 3.32952,-2.92912 -2.26483,-4.28167 -5.59541,-1.35255 -54.738067,0.64559 -54.738067,0.64559"
         style="fill:#7ecb2a;fill-opacity:1;fill-rule:evenodd;stroke:none;stroke-width:0.03527778"
         id="path2274"
         inkscape:connector-curvature="0" />
      <path
         d="m 70.747054,156.21584 c -0.203552,0.3048 -1.321858,3.66078 -1.220611,5.3901 0.101953,1.72896 0.3048,2.74602 0.3048,2.74602 0,0 9.356373,-0.30516 16.069029,-0.2032 6.712303,0.10124 12.305595,1.52506 16.068678,0.2032 3.76273,-1.32221 12.71235,-2.23732 13.11875,-2.13572 0.4071,0.1016 12.81465,1.62701 14.64521,2.23767 -0.71225,-4.17019 -3.86468,-10.88214 -3.86468,-10.88214 0,0 -42.917533,2.84763 -42.917533,3.15313 0,0.3048 -12.203643,-0.50906 -12.203643,-0.50906"
         style="fill:#f6c309;fill-opacity:1;fill-rule:nonzero;stroke:none;stroke-width:0.03527778"
         id="path2276"
         inkscape:connector-curvature="0" />
      <path
         d="m 69.988229,149.30845 c 0,0 -2.983089,6.13375 2.822223,9.81181 6.44525,4.08164 11.028892,7.2577 34.623378,6.35988 4.67783,-0.44909 11.82405,-3.24661 13.45142,-3.92007 1.62701,-0.67345 10.49443,-5.55484 6.68408,-12.40719 -1.52541,-2.24508 -12.98963,0.0617 -13.29479,0.17427 -0.3055,0.11218 -40.679863,1.01 -40.273463,0.78599 0.407105,-0.22437 -4.012848,-0.80469 -4.012848,-0.80469"
         style="fill:#773d19;fill-opacity:1;fill-rule:nonzero;stroke:none;stroke-width:0.03527778"
         id="path2278"
         inkscape:connector-curvature="0" />
      <path
         d="m 85.65368,150.08739 c 0.406753,0.22436 28.21376,16.29833 28.21376,16.29833 0,0 2.54247,-8.08002 7.42456,-12.23257 4.88139,-4.15255 -4.58999,-3.59904 -4.58999,-3.59904 l -31.04833,-0.46672"
         style="fill:#f6c309;fill-opacity:1;fill-rule:nonzero;stroke:none;stroke-width:0.03527778"
         id="path2280"
         inkscape:connector-curvature="0" />
      <path
         d="m 126.56426,146.53985 c 0,0 5.40773,0.78035 5.23523,3.29072 -0.17216,2.51036 -3.23603,1.22978 -4.20512,3.47133 -0.96978,2.2419 -2.55164,2.04188 -5.15196,2.70827 -2.60033,0.66605 -1.6256,2.23132 -3.70276,2.83916 -2.07856,0.60854 -1.72332,-0.47166 -4.69723,-1.07633 -2.97427,-0.6043 -4.96959,1.45451 -6.84495,-0.98213 -1.87643,-2.43664 -5.73476,-3.10374 -7.13564,-2.38584 -1.400879,0.71826 -2.653593,-1.27352 -4.221338,-1.08831 -1.568097,0.18556 -3.137253,2.19815 -6.433256,2.67229 -3.295297,0.47413 -2.313869,-1.43087 -4.137025,-1.05269 -1.823156,0.37818 -2.401006,2.56575 -4.884914,2.81622 -2.484614,0.24977 -2.324806,-2.62008 -3.765903,-2.55905 -1.44145,0.0621 -4.791781,2.17029 -6.430787,0.16793 -1.639358,-2.00343 0.579261,-3.03072 -0.60325,-4.55966 -1.182864,-1.52858 -3.371145,-4.0065 2.207684,-5.77426 5.57918,-1.76777 54.771219,1.51235 54.771219,1.51235"
         style="fill:#7ecb2a;fill-opacity:1;fill-rule:evenodd;stroke:none;stroke-width:0.03527778"
         id="path2282"
         inkscape:connector-curvature="0" />
      <path
         d="m 124.50334,142.24231 c 0,0 5.19465,1.67323 3.55141,5.46877 -1.6443,3.79553 -19.70299,8.68256 -29.047724,-0.38383 0,0 -11.559471,4.80978 -22.354471,3.36903 -10.795001,-1.44004 -7.98442,-9.79558 3.173589,-11.56617 11.156951,-1.76989 44.677196,3.1122 44.677196,3.1122"
         style="fill:#ef2d2d;fill-opacity:1;fill-rule:evenodd;stroke:none;stroke-width:0.03527778"
         id="path2284"
         inkscape:connector-curvature="0" />
      <path
         d="m 97.853089,143.5229 c -0.452966,4.3621 -5.511094,7.41292 -11.298767,6.8132 -5.789084,-0.59973 -10.114845,-4.62351 -9.662937,-8.98702 0.452967,-4.36174 5.511801,-7.41398 11.300532,-6.8139 5.78873,0.59937 10.112728,4.6235 9.661172,8.98772"
         style="fill:#cc69b0;fill-opacity:1;fill-rule:nonzero;stroke:none;stroke-width:0.03527778"
         id="path2286"
         inkscape:connector-curvature="0" />
      <path
         d="m 97.017712,142.32169 c -0.410634,3.96875 -5.011209,6.7437 -10.275359,6.1976 -5.264151,-0.54645 -9.198329,-4.20546 -8.78699,-8.1728 0.411692,-3.96875 5.012973,-6.743 10.276417,-6.19796 5.264151,0.5454 9.196918,4.20547 8.785932,8.17316"
         style="fill:#e9a1c3;fill-opacity:1;fill-rule:nonzero;stroke:none;stroke-width:0.03527778"
         id="path2288"
         inkscape:connector-curvature="0" />
      <path
         d="m 121.63455,140.9134 c 0.4198,4.32223 -3.93841,8.75348 -9.73385,9.89401 -5.79578,1.14088 -10.83275,-1.43828 -11.25114,-5.75981 -0.41981,-4.32364 3.94123,-8.75312 9.73525,-9.89471 5.79332,-1.14159 10.82958,1.43828 11.24974,5.76051"
         style="fill:#cc69b0;fill-opacity:1;fill-rule:nonzero;stroke:none;stroke-width:0.03527778"
         id="path2290"
         inkscape:connector-curvature="0" />
      <path
         d="m 120.57904,140.00958 c 0.38064,3.93207 -3.58211,7.95902 -8.85261,8.99725 -5.27085,1.03787 -9.85026,-1.30704 -10.23232,-5.23875 -0.3803,-3.93136 3.58352,-7.95937 8.85366,-8.99654 5.26909,-1.03893 9.85097,1.30634 10.23127,5.23804"
         style="fill:#e9a1c3;fill-opacity:1;fill-rule:nonzero;stroke:none;stroke-width:0.03527778"
         id="path2292"
         inkscape:connector-curvature="0" />
      <path
         d="m 73.88713,136.00097 c 0,0 -4.061531,2.04682 -1.902531,4.60975 1.170517,1.38853 1.935339,0.92851 2.563283,0.46813 0.530578,-0.38876 0.963789,-0.77717 1.461559,-0.0515 1.087967,1.58538 0.293511,2.46591 2.603147,3.57152 1.13912,0.5461 2.299759,-0.031 3.383845,-0.60784 1.113719,-0.59231 2.147006,-1.18462 2.994025,-0.56091 1.671814,1.23225 1.027289,3.66889 3.467453,3.53765 2.437695,-0.13229 1.921228,-2.69063 4.143375,-1.49648 2.223912,1.19309 0.457906,3.12879 3.313289,2.75167 2.855031,-0.37995 3.411009,-2.72803 6.140095,-2.63808 2.72803,0.0903 1.07104,1.74731 3.84634,2.13113 2.77636,0.38383 2.07257,-1.13347 3.73839,-1.34478 0.75071,-0.096 1.16945,0.40005 1.6764,0.89605 0.61736,0.60431 1.3656,1.20827 3.00319,0.74366 2.98203,-0.84596 2.39925,-2.02142 4.48663,-2.54706 0.81598,-0.20532 1.44427,0.0212 2.07822,0.24765 0.98883,0.35313 1.99178,0.70626 3.74544,-0.57926 2.87902,-2.10891 -0.53164,-3.92712 -0.53164,-3.92712 0,0 -25.598262,-7.10318 -50.21051,-5.20418"
         style="fill:#7ecb2a;fill-opacity:1;fill-rule:nonzero;stroke:none;stroke-width:0.03527778"
         id="path2294"
         inkscape:connector-curvature="0" />
      <path
         d="m 124.47899,145.23951 c 0.0494,-0.0342 0.0995,-0.0702 0.15029,-0.10724 0.85478,-0.62618 1.15499,-1.22661 1.15499,-1.76142 0,0.53481 -0.30021,1.13524 -1.15499,1.76142 -0.0508,0.0374 -0.1009,0.073 -0.15029,0.10724"
         style="fill:#d92c24;fill-opacity:1;fill-rule:nonzero;stroke:none;stroke-width:0.03527778"
         id="path2296"
         inkscape:connector-curvature="0" />
      <path
         d="m 123.40514,145.82125 c 0.13688,-1.55964 0.0737,-3.16195 0.0155,-4.79567 0.44274,0.11572 0.67698,0.17957 0.67698,0.17957 0,0 1.68628,0.89888 1.68663,2.1657 0,0.53481 -0.30021,1.13524 -1.15499,1.76142 -0.0508,0.037 -0.1009,0.073 -0.15029,0.10724 -0.3937,0.27376 -0.74647,0.4565 -1.07385,0.58174"
         style="fill:#68c030;fill-opacity:1;fill-rule:nonzero;stroke:none;stroke-width:0.03527778"
         id="path2298"
         inkscape:connector-curvature="0" />
      <path
         d="m 124.36046,142.31358 c 10.65283,-12.40438 -6.78074,-22.55485 -23.0505,-24.24184 -16.271171,-1.68627 -35.415717,4.67255 -27.533955,18.99815 5.089172,5.49522 44.478575,9.57897 50.584455,5.24369"
         style="fill:#e6851e;fill-opacity:1;fill-rule:nonzero;stroke:none;stroke-width:0.03527778"
         id="path2300"
         inkscape:connector-curvature="0" />
      <path
         d="m 77.286144,126.61355 c 5.998986,-4.6041 12.855223,-6.33659 19.731568,-6.01063 7.875408,0.37606 15.446728,2.04823 22.970068,4.09293 -4.98299,-2.92276 -11.57429,-4.91313 -17.9959,-5.57777 -13.258802,-1.37477 -28.413431,2.59786 -29.309839,11.86604 1.342672,-1.5674 2.846211,-3.02225 4.604103,-4.37057"
         style="fill:#f0a22a;fill-opacity:1;fill-rule:nonzero;stroke:none;stroke-width:0.03527778"
         id="path2302"
         inkscape:connector-curvature="0" />
      <path
         d="m 125.55673,128.95035 c 0.10689,3.06247 -0.10372,5.83071 -0.94933,7.28204 -7.31131,12.28161 -42.029589,4.99287 -51.293534,-0.0857 0.146402,0.3055 0.28963,0.6096 0.462139,0.92322 5.089172,5.49522 44.478575,9.57897 50.584455,5.24369 4.24639,-4.94454 4.02096,-9.52783 1.19627,-13.36323"
         style="fill:#c16f1c;fill-opacity:1;fill-rule:nonzero;stroke:none;stroke-width:0.03527778"
         id="path2304"
         inkscape:connector-curvature="0" />
      <path
         d="m 83.119325,125.32838 c -0.518231,-0.14922 -1.0668,0.0734 -1.224845,0.49671 -0.160514,0.42404 0.128058,0.88795 0.644878,1.03788 0.516819,0.15063 1.062919,-0.0723 1.224844,-0.49601 0.160514,-0.42227 -0.129116,-0.88794 -0.644877,-1.03858"
         style="fill:#fbd15c;fill-opacity:1;fill-rule:nonzero;stroke:none;stroke-width:0.03527778"
         id="path2306"
         inkscape:connector-curvature="0" />
      <path
         d="m 90.217214,123.66504 c -0.515761,-0.14993 -1.063625,0.0727 -1.225197,0.4953 -0.159809,0.42403 0.129116,0.88864 0.646641,1.03787 0.516467,0.15169 1.062214,-0.0716 1.224492,-0.4946 0.160161,-0.42333 -0.129117,-0.88864 -0.645936,-1.03857"
         style="fill:#fbd15c;fill-opacity:1;fill-rule:nonzero;stroke:none;stroke-width:0.03527778"
         id="path2308"
         inkscape:connector-curvature="0" />
      <path
         d="m 91.673481,128.66107 c -0.51682,-0.14887 -1.065742,0.0727 -1.225198,0.49601 -0.160161,0.4251 0.130881,0.889 0.645584,1.03893 0.51435,0.14887 1.063272,-0.0727 1.224139,-0.49601 0.161219,-0.42333 -0.129117,-0.88794 -0.644525,-1.03893"
         style="fill:#fbd15c;fill-opacity:1;fill-rule:nonzero;stroke:none;stroke-width:0.03527778"
         id="path2310"
         inkscape:connector-curvature="0" />
      <path
         d="m 101.67367,123.8506 c -0.51576,-0.14993 -1.06433,0.0723 -1.22484,0.49565 -0.15946,0.42369 0.12982,0.88724 0.64488,1.03822 0.51823,0.14923 1.06503,-0.0727 1.22484,-0.496 0.16052,-0.42333 -0.12841,-0.88794 -0.64488,-1.03787"
         style="fill:#fbd15c;fill-opacity:1;fill-rule:nonzero;stroke:none;stroke-width:0.03527778"
         id="path2312"
         inkscape:connector-curvature="0" />
      <path
         d="m 105.86926,130.7594 c 0.51541,0.14887 1.06292,-0.0727 1.22273,-0.49601 0.16228,-0.42333 -0.12594,-0.88794 -0.64276,-1.03787 -0.51612,-0.15064 -1.06504,0.0716 -1.22414,0.49495 -0.16158,0.42439 0.127,0.889 0.64417,1.03893"
         style="fill:#fbd15c;fill-opacity:1;fill-rule:nonzero;stroke:none;stroke-width:0.03527778"
         id="path2314"
         inkscape:connector-curvature="0" />
      <path
         d="m 110.64305,127.30359 c 0.51611,0.14993 1.06609,-0.0723 1.2252,-0.49495 0.1598,-0.42404 -0.12736,-0.88971 -0.64382,-1.03823 -0.51682,-0.15134 -1.06539,0.072 -1.2252,0.4953 -0.16016,0.42334 0.12735,0.88795 0.64382,1.03788"
         style="fill:#fbd15c;fill-opacity:1;fill-rule:nonzero;stroke:none;stroke-width:0.03527778"
         id="path2316"
         inkscape:connector-curvature="0" />
      <path
         d="m 116.97823,131.42897 c 0.16087,-0.42333 -0.1277,-0.889 -0.64382,-1.03787 -0.51611,-0.15064 -1.06398,0.0716 -1.22449,0.49565 -0.16192,0.42298 0.12771,0.88724 0.64382,1.03823 0.51611,0.14993 1.06645,-0.0723 1.22449,-0.49601"
         style="fill:#fbd15c;fill-opacity:1;fill-rule:nonzero;stroke:none;stroke-width:0.03527778"
         id="path2318"
         inkscape:connector-curvature="0" />
      <path
         d="m 117.29997,136.09728 c -0.51612,-0.14993 -1.06292,0.0723 -1.22379,0.496 -0.16157,0.42334 0.12912,0.88759 0.64382,1.03717 0.51611,0.15064 1.06504,-0.0713 1.2252,-0.4953 0.16051,-0.42404 -0.12841,-0.889 -0.64523,-1.03787"
         style="fill:#fbd15c;fill-opacity:1;fill-rule:nonzero;stroke:none;stroke-width:0.03527778"
         id="path2320"
         inkscape:connector-curvature="0" />
      <path
         d="m 110.7383,133.34173 c -0.51682,-0.14958 -1.06398,0.0734 -1.22555,0.49601 -0.1591,0.42333 0.12806,0.889 0.64629,1.03787 0.51717,0.14993 1.06398,-0.0716 1.22519,-0.49495 0.15981,-0.42368 -0.12982,-0.889 -0.64593,-1.03893"
         style="fill:#fbd15c;fill-opacity:1;fill-rule:nonzero;stroke:none;stroke-width:0.03527778"
         id="path2322"
         inkscape:connector-curvature="0" />
      <path
         d="m 105.88902,136.19112 c -0.51506,-0.15064 -1.06398,0.0716 -1.22485,0.496 -0.16087,0.42263 0.12947,0.88794 0.64453,1.03787 0.51752,0.14888 1.06433,-0.0734 1.22449,-0.496 0.15945,-0.42333 -0.127,-0.88865 -0.64417,-1.03787"
         style="fill:#fbd15c;fill-opacity:1;fill-rule:nonzero;stroke:none;stroke-width:0.03527778"
         id="path2324"
         inkscape:connector-curvature="0" />
      <path
         d="m 100.41567,129.92155 c -0.518939,-0.15064 -1.066097,0.0716 -1.224847,0.496 -0.160867,0.42334 0.127705,0.88795 0.645936,1.03788 0.514701,0.15063 1.062211,-0.0716 1.221321,-0.49601 0.16333,-0.42333 -0.12736,-0.88794 -0.64241,-1.03787"
         style="fill:#fbd15c;fill-opacity:1;fill-rule:nonzero;stroke:none;stroke-width:0.03527778"
         id="path2326"
         inkscape:connector-curvature="0" />
      <path
         d="m 93.490639,133.44545 c -0.517525,-0.15064 -1.065389,0.0716 -1.224139,0.49459 -0.161925,0.42475 0.127353,0.88865 0.643467,1.03858 0.517878,0.14993 1.064683,-0.0727 1.224139,-0.49601 0.159808,-0.42333 -0.127706,-0.88794 -0.643467,-1.03716"
         style="fill:#fbd15c;fill-opacity:1;fill-rule:nonzero;stroke:none;stroke-width:0.03527778"
         id="path2328"
         inkscape:connector-curvature="0" />
      <path
         d="m 85.413439,131.10124 c -0.517173,-0.15028 -1.065037,0.0723 -1.224139,0.49671 -0.162278,0.42263 0.127,0.88794 0.644172,1.03787 0.516819,0.14993 1.065389,-0.0716 1.222728,-0.49565 0.162278,-0.42475 -0.125942,-0.8883 -0.642761,-1.03893"
         style="fill:#fbd15c;fill-opacity:1;fill-rule:nonzero;stroke:none;stroke-width:0.03527778"
         id="path2330"
         inkscape:connector-curvature="0" />
      <path
         d="m 77.619166,132.27564 c -0.51682,-0.14993 -1.064683,0.0723 -1.223786,0.49671 -0.162631,0.42262 0.127,0.88794 0.643819,1.03787 0.51682,0.14993 1.065742,-0.0716 1.222728,-0.49565 0.162631,-0.4244 -0.125942,-0.8883 -0.642761,-1.03893"
         style="fill:#fbd15c;fill-opacity:1;fill-rule:nonzero;stroke:none;stroke-width:0.03527778"
         id="path2332"
         inkscape:connector-curvature="0" />
      <path
         d="m 87.869125,136.43947 c -0.51682,-0.14993 -1.064684,0.0727 -1.223786,0.49671 -0.162631,0.42263 0.126647,0.88795 0.643819,1.03823 0.51682,0.14958 1.065742,-0.072 1.222728,-0.49601 0.162278,-0.42439 -0.125942,-0.88794 -0.642761,-1.03893"
         style="fill:#fbd15c;fill-opacity:1;fill-rule:nonzero;stroke:none;stroke-width:0.03527778"
         id="path2334"
         inkscape:connector-curvature="0" />
      <path
         d="m 99.827587,137.2939 c -0.517173,-0.14993 -1.064684,0.0727 -1.224139,0.49671 -0.162278,0.42263 0.127,0.88794 0.644172,1.03787 0.516467,0.14993 1.06539,-0.0716 1.22238,-0.496 0.16263,-0.42404 -0.12559,-0.88794 -0.642413,-1.03858"
         style="fill:#fbd15c;fill-opacity:1;fill-rule:nonzero;stroke:none;stroke-width:0.03527778"
         id="path2336"
         inkscape:connector-curvature="0" />
      <path
         d="m 122.67595,128.53901 c -0.51682,-0.15028 -1.06469,0.0723 -1.22379,0.49672 -0.16263,0.42262 0.12665,0.88794 0.64382,1.03787 0.51682,0.14993 1.06574,-0.0716 1.22273,-0.49601 0.16263,-0.42439 -0.12594,-0.88794 -0.64276,-1.03858"
         style="fill:#fbd15c;fill-opacity:1;fill-rule:nonzero;stroke:none;stroke-width:0.03527778"
         id="path2338"
         inkscape:connector-curvature="0" />
      <path
         d="m 113.17352,139.21583 c -0.51717,-0.14993 -1.06468,0.0727 -1.22414,0.49671 -0.16192,0.42263 0.127,0.8883 0.64418,1.03788 0.51682,0.14993 1.06539,-0.0716 1.22272,-0.49566 0.16228,-0.42439 -0.12594,-0.88829 -0.64276,-1.03893"
         style="fill:#fbd15c;fill-opacity:1;fill-rule:nonzero;stroke:none;stroke-width:0.03527778"
         id="path2340"
         inkscape:connector-curvature="0" />
      <path
         d="m 97.158117,126.08333 c -0.517172,-0.15029 -1.065036,0.0723 -1.224139,0.49671 -0.162278,0.42263 0.127,0.88794 0.644172,1.03787 0.51682,0.14993 1.065389,-0.0716 1.222728,-0.49601 0.162278,-0.42403 -0.125941,-0.88794 -0.642761,-1.03857"
         style="fill:#fbd15c;fill-opacity:1;fill-rule:nonzero;stroke:none;stroke-width:0.03527778"
         id="path2342"
         inkscape:connector-curvature="0" />
    </g>
    <path
       d="M 124.47948,189.50691 H 46.72055 v -19.51147 h 77.75893 v 19.51147"
       style="fill:#fc1460;fill-opacity:1;fill-rule:nonzero;stroke:none;stroke-width:0.02869333"
       id="path7194"
       inkscape:connector-curvature="0" />
    <text
       xml:space="preserve"
       style="font-style:normal;font-variant:normal;font-weight:normal;font-stretch:normal;font-size:8.60799789px;line-height:1.25;font-family:chilanka;-inkscape-font-specification:chilanka;letter-spacing:0px;word-spacing:0px;fill:#ffffff;fill-opacity:1;stroke:#ffffff;stroke-width:0.40667707;stroke-miterlimit:4;stroke-dasharray:none;stroke-opacity:1"
       x="61.267101"
       y="183.21017"
       id="text7541"><tspan
         sodipodi:role="line"
         id="tspan7539"
         x="61.267101"
         y="183.21017"
         style="font-size:16.06826401px;fill:#ffffff;stroke:#ffffff;stroke-width:0.40667707;stroke-miterlimit:4;stroke-dasharray:none;stroke-opacity:1">Burger</tspan></text>
  </g>
</svg>
